<svg width="70" height="70" viewBox="0 0 70 70" fill="none" xmlns="http://www.w3.org/2000/svg">
<rect width="70" height="70" rx="35" fill="white" fill-opacity="0.25"/>
<g clip-path="url(#clip0_104_4133)">
<path d="M33.9747 36.1828C32.7812 35.7595 31.9239 34.6198 31.9239 33.283C31.9239 31.5868 33.3039 30.2068 35.0001 30.2068C36.6963 30.2068 38.0762 31.5868 38.0762 33.283C38.0762 34.6198 37.219 35.7595 36.0255 36.1828V37.8727H42.4619L41.2028 28.3957C41.0454 27.2114 40.0258 26.3184 38.831 26.3184H31.1678C29.973 26.3184 28.9533 27.2115 28.7961 28.3961L27.538 37.8726H33.9747V36.1828Z" fill="white"/>
<path d="M35 34.3085C35.5663 34.3085 36.0254 33.8494 36.0254 33.2831C36.0254 32.7168 35.5663 32.2577 35 32.2577C34.4337 32.2577 33.9746 32.7168 33.9746 33.2831C33.9746 33.8494 34.4337 34.3085 35 34.3085Z" fill="#FAD76E"/>
<path d="M35 22.5585C35.5663 22.5585 36.0254 22.0994 36.0254 21.5331V18.5254C36.0254 17.9591 35.5663 17.5 35 17.5C34.4337 17.5 33.9746 17.9591 33.9746 18.5254V21.5331C33.9746 22.0994 34.4337 22.5585 35 22.5585Z" fill="#FAD76E"/>
<path d="M19.2944 35.2393H22.3022C22.8685 35.2393 23.3276 34.7802 23.3276 34.2139C23.3276 33.6476 22.8685 33.1885 22.3022 33.1885H19.2944C18.7281 33.1885 18.269 33.6476 18.269 34.2139C18.269 34.7802 18.7281 35.2393 19.2944 35.2393Z" fill="#FAD76E"/>
<path d="M46.6725 34.2139C46.6725 34.7802 47.1316 35.2393 47.6979 35.2393H50.7056C51.2719 35.2393 51.731 34.7802 51.731 34.2139C51.731 33.6476 51.2719 33.1885 50.7056 33.1885H47.6979C47.1316 33.1885 46.6725 33.6476 46.6725 34.2139Z" fill="#FAD76E"/>
<path d="M25.2963 25.9602C25.4966 26.1604 25.759 26.2606 26.0214 26.2606C26.2837 26.2606 26.5462 26.1604 26.7464 25.9602C27.1468 25.5597 27.1468 24.9105 26.7464 24.5101L24.6196 22.3834C24.2192 21.983 23.5699 21.983 23.1695 22.3834C22.769 22.7838 22.769 23.433 23.1695 23.8335L25.2963 25.9602Z" fill="#FAD76E"/>
<path d="M43.9787 26.2606C44.241 26.2606 44.5035 26.1605 44.7037 25.9602L46.8305 23.8335C47.2309 23.4331 47.2309 22.7839 46.8305 22.3834C46.4302 21.983 45.7809 21.983 45.3804 22.3834L43.2536 24.5101C42.8531 24.9105 42.8531 25.5597 43.2536 25.9602C43.4538 26.1605 43.7162 26.2606 43.9787 26.2606Z" fill="#FAD76E"/>
<path d="M26.0449 40.9488V42.5199C26.2447 42.6866 26.4358 42.8648 26.6165 43.0548H43.3834C43.5641 42.8648 43.7553 42.6866 43.955 42.5199V40.9488C43.955 40.3825 43.4959 39.9234 42.9296 39.9234H27.0703C26.504 39.9234 26.0449 40.3825 26.0449 40.9488Z" fill="#FAD76E"/>
<path d="M51.9718 49.3311H49.7915L48.7369 47.7466L49.7915 46.1621H51.9718C52.1607 46.1621 52.335 46.0613 52.4294 45.8978C52.5236 45.7343 52.5235 45.5328 52.429 45.3694C51.581 43.9037 50.0035 42.9931 48.3119 42.9931C46.7242 42.9931 45.2369 43.7953 44.3591 45.1058H25.6408C24.7631 43.7953 23.2758 42.9931 21.6881 42.9931C19.9965 42.9931 18.4189 43.9037 17.5709 45.3694C17.4765 45.5328 17.4763 45.7343 17.5706 45.8978C17.6649 46.0613 17.8394 46.1621 18.0281 46.1621H20.2085L21.263 47.7466L20.2085 49.3311H18.0281C17.8393 49.3311 17.6649 49.4318 17.5706 49.5953C17.4763 49.7589 17.4765 49.9603 17.5709 50.1237C18.4189 51.5895 19.9965 52.5001 21.6881 52.5001C23.2758 52.5001 24.7631 51.6979 25.6408 50.3874H44.3591C45.2369 51.6979 46.7241 52.5001 48.3119 52.5001C50.0035 52.5001 51.5811 51.5895 52.429 50.1237C52.5235 49.9603 52.5236 49.7589 52.4294 49.5953C52.335 49.4318 52.1606 49.3311 51.9718 49.3311Z" fill="white"/>
</g>
<defs>
<clipPath id="clip0_104_4133">
<rect width="35" height="35" fill="white" transform="translate(17.5 17.5)"/>
</clipPath>
</defs>
</svg>
