<svg width="32" height="32" viewBox="0 0 32 32" fill="none" xmlns="http://www.w3.org/2000/svg">
<path d="M26.6666 8.60964V25.1429C26.6666 26.934 25.21 28.3906 23.419 28.3906H9.24761C7.45658 28.3906 6 26.934 6 25.1429V8.60964C6 6.9197 7.30153 5.54378 8.95238 5.39191V6.24774C8.95238 8.364 10.6742 10.0858 12.7905 10.0858H19.8762C21.9924 10.0858 23.7143 8.364 23.7143 6.24774V5.39191C25.3651 5.54378 26.6666 6.91982 26.6666 8.60964ZM21.9428 23.962C21.9428 23.473 21.5461 23.0763 21.0571 23.0763H11.6095C11.1205 23.0763 10.7238 23.473 10.7238 23.962C10.7238 24.451 11.1205 24.8477 11.6095 24.8477H21.0571C21.5461 24.8477 21.9428 24.451 21.9428 23.962ZM21.9428 19.2382C21.9428 18.7492 21.5461 18.3525 21.0571 18.3525H11.6095C11.1205 18.3525 10.7238 18.7492 10.7238 19.2382C10.7238 19.7272 11.1205 20.1239 11.6095 20.1239H21.0571C21.5461 20.1239 21.9428 19.7272 21.9428 19.2382ZM21.9428 14.5144C21.9428 14.0254 21.5461 13.6287 21.0571 13.6287H11.6095C11.1205 13.6287 10.7238 14.0254 10.7238 14.5144C10.7238 15.0034 11.1205 15.4001 11.6095 15.4001H21.0571C21.5461 15.4001 21.9428 15.0034 21.9428 14.5144Z" fill="black"/>
<path d="M21.9429 6.24749V5.06654C21.9429 3.92716 21.0156 2.99988 19.8762 2.99988H12.7905C11.6512 2.99988 10.7239 3.92716 10.7239 5.06654V6.24749C10.7239 7.38687 11.6512 8.31415 12.7905 8.31415H19.8762C21.0156 8.31415 21.9429 7.38687 21.9429 6.24749Z" fill="#FAD76E"/>
</svg>
