<svg width="70" height="70" viewBox="0 0 70 70" fill="none" xmlns="http://www.w3.org/2000/svg">
<rect width="70" height="70" rx="35" fill="white" fill-opacity="0.25"/>
<g clip-path="url(#clip0_104_4109)">
<path d="M17.5 21.6349H29.8529V24.7231H17.5V21.6349Z" fill="#FAD76E"/>
<path d="M19.5588 17.5171H27.7941V19.5759H19.5588V17.5171Z" fill="#FAD76E"/>
<path d="M24.4781 40.8271C25.1164 40.846 25.7304 40.671 26.2534 40.3308C28.3989 38.9636 27.6162 39.4624 27.7941 39.349V26.7819H19.5588C19.6334 28.3304 19.3598 41.722 19.7659 42.8851L20.324 42.7549C20.8024 42.6097 21.2434 42.3461 21.6009 41.9913C22.3787 41.2196 23.4265 40.7946 24.4781 40.8271Z" fill="white"/>
<path d="M38.3846 47.1653C38.0766 46.8444 37.6185 46.6697 37.1282 46.6867C35.6429 46.7399 34.1584 46.1355 33.1209 44.9803L32.3373 44.1567C30.4213 44.6754 28.4868 43.5454 27.9414 41.6964C26.8468 42.4548 25.7754 42.9332 24.4156 42.885C23.9268 42.8712 23.4297 43.0772 23.0511 43.4528C22.4452 44.0541 21.6939 44.4984 20.8784 44.738L20.8223 44.7528L20.3254 44.8688C23.3234 53.121 34.6134 55.1993 40.3201 48.4502L39.6586 48.1344C39.186 47.8796 38.7574 47.5535 38.3846 47.1653Z" fill="#FAD76E"/>
<path d="M35 36.2182V40.679C35 41.5813 34.6658 42.4066 34.1156 43.0395L34.6456 43.5967C35.2414 44.2648 36.1191 44.6613 37.0566 44.6291C38.1317 44.5915 39.157 44.997 39.8697 45.7393C40.0885 45.9672 40.3391 46.1594 40.6148 46.3107L41.5517 46.7576C42.6201 44.9797 43.2353 42.8999 43.2353 40.679V36.6299C43.2291 34.4094 45.1735 32.7644 47.3529 32.9584V24.7231C40.7281 24.2996 34.9739 29.5391 35 36.2182Z" fill="white"/>
<path d="M49.4117 22.6641H52.5V35.0171H49.4117V22.6641Z" fill="#FAD76E"/>
</g>
<defs>
<clipPath id="clip0_104_4109">
<rect width="35" height="35" fill="white" transform="translate(17.5 17.5)"/>
</clipPath>
</defs>
</svg>
