<svg width="70" height="70" viewBox="0 0 70 70" fill="none" xmlns="http://www.w3.org/2000/svg">
<rect width="70" height="70" rx="35" fill="white" fill-opacity="0.25"/>
<path d="M41.4583 34.6109H44.633L44.6301 36.3367H41.4582L41.4583 34.6109ZM47.6643 32.5129V32.8707C47.6639 33.2694 47.5053 33.6517 47.2234 33.9336C46.9414 34.2156 46.5591 34.3742 46.1604 34.3746H45.5904L45.5865 36.62H47.4455C48.0988 36.6193 48.7251 36.3594 49.1871 35.8975C49.649 35.4355 49.9089 34.8091 49.9096 34.1558V32.5129H47.6643ZM49.6903 24.966C49.6903 24.9259 49.6744 24.8874 49.6461 24.8589C49.6177 24.8305 49.5793 24.8145 49.5391 24.8145H48.1157C48.0756 24.8145 48.0372 24.8305 48.0088 24.8588C47.9805 24.8872 47.9645 24.9256 47.9645 24.9657V31.5556H49.6904L49.6903 24.966ZM40.5015 46.9415H22.2665V30.6442H40.5013L40.5015 46.9415ZM34.1622 40.6133C34.1622 39.4364 32.408 36.7688 31.3842 35.3549C30.3603 36.7688 28.606 39.4364 28.606 40.6133C28.606 40.9781 28.6778 41.3393 28.8175 41.6764C28.9571 42.0135 29.1617 42.3197 29.4197 42.5777C29.6777 42.8357 29.9839 43.0403 30.321 43.1799C30.658 43.3195 31.0193 43.3914 31.3841 43.3914C31.7489 43.3914 32.1102 43.3195 32.4473 43.1799C32.7843 43.0403 33.0906 42.8357 33.3485 42.5777C33.6065 42.3197 33.8112 42.0135 33.9508 41.6764C34.0904 41.3393 34.1622 40.9781 34.1622 40.6133Z" fill="white"/>
<path d="M45.4932 39.4886H47.3525C48.0059 39.4894 48.6322 39.7492 49.0942 40.2112C49.5562 40.6731 49.816 41.2995 49.8168 41.9528V43.5958H47.5713V43.2381C47.5709 42.8394 47.4123 42.4571 47.1303 42.1751C46.8484 41.8932 46.4661 41.7346 46.0674 41.7342H45.4971L45.4932 39.4886Z" fill="#FAD76E"/>
<path d="M47.9158 51.2496C47.8874 51.2212 47.8715 51.1828 47.8714 51.1427L47.8712 44.5528H49.5972V51.1427C49.5971 51.1828 49.5812 51.2212 49.5528 51.2496C49.5245 51.2779 49.4861 51.2938 49.446 51.2939H48.0227C47.9826 51.2938 47.9441 51.2779 47.9158 51.2496Z" fill="#FAD76E"/>
<path d="M21.7879 47.8985H40.9801C41.4303 47.8985 41.862 48.0774 42.1803 48.3957C42.4987 48.7141 42.6776 49.1459 42.6776 49.5962C42.6776 50.0465 42.4987 50.4783 42.1803 50.7967C41.862 51.115 41.4301 51.2939 40.9799 51.2939H21.7879C21.3377 51.2939 20.9058 51.115 20.5875 50.7967C20.2691 50.4783 20.0902 50.0465 20.0902 49.5962C20.0902 49.1459 20.2691 48.7141 20.5875 48.3957C20.9058 48.0774 21.3377 47.8985 21.7879 47.8985Z" fill="#FAD76E"/>
<path d="M41.4586 41.4977V39.7719H44.5372L44.5401 41.4977H41.4586Z" fill="#FAD76E"/>
<path d="M37.8985 25.8128C39.5528 26.2624 40.5015 26.8906 40.5015 27.5366L40.5013 29.6874H22.2666V27.5368C22.2666 26.9045 23.2467 26.2803 24.9531 25.8251C26.6595 25.3698 29.0452 25.1087 31.4983 25.1087C33.9545 25.1087 36.2275 25.3586 37.8985 25.8128Z" fill="#FAD76E"/>
<path d="M30.6914 23.9067C30.6017 23.8169 30.5513 23.6952 30.5513 23.5683C30.5513 23.0092 30.8455 22.7055 31.0401 22.5047L31.0402 22.5046C31.2067 22.3326 31.2593 22.2706 31.2593 22.107C31.2593 21.9433 31.2067 21.8812 31.0402 21.7094L31.04 21.7093C30.8454 21.5084 30.5513 21.2047 30.5513 20.6457C30.5513 20.0867 30.8455 19.783 31.0401 19.5822L31.0402 19.5821C31.2067 19.4102 31.2593 19.3482 31.2593 19.1846C31.2593 19.0577 31.3098 18.936 31.3995 18.8463C31.4892 18.7565 31.611 18.7061 31.7379 18.7061C31.8648 18.7061 31.9865 18.7565 32.0762 18.8463C32.166 18.936 32.2164 19.0577 32.2164 19.1846C32.2164 19.7437 31.9222 20.0474 31.7274 20.2482C31.5609 20.4202 31.5083 20.4821 31.5083 20.6457C31.5083 20.8094 31.5609 20.8715 31.7275 21.0434C31.9224 21.2442 32.2164 21.5479 32.2164 22.107C32.2164 22.6661 31.9222 22.9698 31.7275 23.1706C31.5609 23.3427 31.5083 23.4046 31.5083 23.5683C31.5083 23.6952 31.4579 23.8169 31.3682 23.9067C31.2784 23.9964 31.1567 24.0468 31.0298 24.0468C30.9029 24.0468 30.7812 23.9964 30.6914 23.9067Z" fill="#FAD76E"/>
<path d="M32.7033 23.9067C32.6136 23.8169 32.5632 23.6952 32.5632 23.5683C32.5632 23.0095 32.857 22.7059 33.0513 22.5051L33.0517 22.5046C33.2182 22.3326 33.2709 22.2706 33.2709 22.107C33.2709 21.9433 33.2182 21.8812 33.0517 21.7094C32.8568 21.5085 32.5628 21.2049 32.5628 20.6457C32.5628 20.0866 32.857 19.783 33.0517 19.5821C33.2182 19.4102 33.2709 19.3482 33.2709 19.1846C33.2709 19.0577 33.3213 18.936 33.411 18.8463C33.5008 18.7565 33.6225 18.7061 33.7494 18.7061C33.8763 18.7061 33.998 18.7565 34.0878 18.8463C34.1775 18.936 34.2279 19.0577 34.2279 19.1846C34.2279 19.7437 33.9336 20.0474 33.7389 20.2482C33.5728 20.4202 33.5202 20.4821 33.5202 20.6457C33.5202 20.8094 33.5728 20.8715 33.7394 21.0434C33.9343 21.2442 34.2283 21.5479 34.2283 22.107C34.2283 22.6661 33.934 22.9697 33.7394 23.1706L33.7394 23.1706C33.5728 23.3427 33.5202 23.4046 33.5202 23.5683C33.5202 23.6952 33.4698 23.8169 33.38 23.9067C33.2903 23.9964 33.1686 24.0468 33.0417 24.0468C32.9148 24.0468 32.7931 23.9964 32.7033 23.9067Z" fill="#FAD76E"/>
<path d="M28.6795 23.9067C28.5898 23.8169 28.5394 23.6952 28.5394 23.5683C28.5394 23.0103 28.8327 22.7068 29.0268 22.5059L29.028 22.5046C29.1945 22.3326 29.2472 22.2706 29.2472 22.107C29.2472 21.9433 29.1945 21.8812 29.028 21.7094C28.833 21.5085 28.5391 21.2049 28.5391 20.6457C28.5391 20.0866 28.8333 19.783 29.028 19.5821C29.1945 19.4102 29.2472 19.3482 29.2472 19.1846C29.2472 19.0577 29.2976 18.936 29.3873 18.8463C29.4771 18.7565 29.5988 18.7061 29.7257 18.7061C29.8526 18.7061 29.9743 18.7565 30.0641 18.8463C30.1538 18.936 30.2042 19.0577 30.2042 19.1846C30.2042 19.7437 29.9099 20.0474 29.7152 20.2482C29.5491 20.4202 29.4964 20.4821 29.4964 20.6457C29.4964 20.8094 29.5491 20.8715 29.7156 21.0434C29.9106 21.2442 30.2046 21.5479 30.2046 22.107C30.2046 22.6661 29.9103 22.9698 29.7156 23.1706C29.5491 23.3427 29.4964 23.4046 29.4964 23.5683C29.4964 23.6952 29.446 23.8169 29.3563 23.9067C29.2665 23.9964 29.1448 24.0468 29.0179 24.0468C28.891 24.0468 28.7693 23.9964 28.6795 23.9067Z" fill="#FAD76E"/>
</svg>
