<svg width="32" height="32" viewBox="0 0 32 32" fill="none" xmlns="http://www.w3.org/2000/svg">
<g clip-path="url(#clip0_163_3583)">
<path d="M8.53159 10.7282C10.938 10.7282 12.8957 8.77036 12.8957 6.36411C12.8957 3.95764 10.9378 2 8.53159 2C6.12534 2 4.16748 3.95764 4.16748 6.36411C4.16748 8.77036 6.12512 10.7282 8.53159 10.7282Z" fill="#FAD76E"/>
<path d="M15.999 22.3655C13.1247 22.3655 10.7864 24.7041 10.7864 27.5784V29.1797C10.7864 29.6328 11.1536 30 11.6067 30H20.393C20.8461 30 21.2133 29.6328 21.2133 29.1797V27.5792C21.2133 24.7045 18.8746 22.3655 15.999 22.3655Z" fill="black"/>
<path d="M9.1459 27.5786C9.1459 24.8983 10.6927 22.5728 12.9405 21.447C11.4319 20.4502 10.4347 18.7397 10.4347 16.8004C10.4347 15.4362 10.9284 14.1855 11.7459 13.2165C10.7964 12.6773 9.6994 12.3688 8.53152 12.3688C4.93005 12.369 2 15.2989 2 18.9004V29.1799C2 29.633 2.36722 30.0002 2.82031 30.0002H9.2869C9.19589 29.7434 9.1459 29.4674 9.1459 29.1799V27.5786Z" fill="black"/>
<path d="M15.9999 20.7249C18.1641 20.7249 19.9246 18.9642 19.9246 16.8002C19.9246 14.6362 18.1641 12.8755 15.9999 12.8755C13.8357 12.8755 12.0752 14.6362 12.0752 16.8002C12.0752 18.9644 13.8357 20.7249 15.9999 20.7249Z" fill="#FAD76E"/>
<path d="M23.4686 10.7282C25.8748 10.7282 27.8327 8.77036 27.8327 6.36411C27.8327 3.95764 25.8751 2 23.4686 2C21.0621 2 19.1045 3.95764 19.1045 6.36411C19.1045 8.77036 21.0623 10.7282 23.4686 10.7282Z" fill="#FAD76E"/>
<path d="M23.4685 12.3693C22.3009 12.3693 21.2037 12.6775 20.2542 13.2167C21.0717 14.1857 21.5654 15.4365 21.5654 16.8007C21.5654 18.7401 20.5682 20.4506 19.0596 21.4472C21.3073 22.573 22.8542 24.8985 22.8542 27.5788V29.1801C22.8542 29.4677 22.8042 29.7437 22.7132 30.0004H29.1797C29.6328 30.0004 30.0001 29.6332 30.0001 29.1801V18.9006C30.0001 15.2991 27.07 12.3693 23.4685 12.3693Z" fill="black"/>
</g>
<defs>
<clipPath id="clip0_163_3583">
<rect width="28" height="28" fill="white" transform="translate(2 2)"/>
</clipPath>
</defs>
</svg>
