<svg width="32" height="32" viewBox="0 0 32 32" fill="none" xmlns="http://www.w3.org/2000/svg">
<path d="M30.87 25.5L27.03 18.85C25.22 21.76 22.29 23.9 18.85 24.68L22.21 30.5C22.39 30.81 22.72 31 23.08 31H23.14C23.52 30.98 23.85 30.74 24 30.39L25.67 26.48L29.89 26.99C30.27 27.03 30.64 26.86 30.84 26.55C31.05 26.23 31.06 25.83 30.87 25.5Z" fill="#FAD76E"/>
<path d="M4.97 18.85L1.13 25.5C0.940004 25.83 0.950004 26.24 1.16 26.55C1.37 26.86 1.74 27.04 2.11 26.99L6.33 26.48L8 30.39C8.15 30.74 8.48 30.97 8.86 31H8.92C9.28 31 9.61 30.81 9.79 30.5L13.15 24.68C9.7 23.91 6.78 21.76 4.97 18.85Z" fill="#FAD76E"/>
<path d="M27 12C27 5.93 22.07 1 16 1C9.93 1 5 5.93 5 12C5 18.07 9.93 23 16 23C22.07 23 27 18.07 27 12ZM15 11H17C18.65 11 20 12.35 20 14C20 15.65 18.65 17 17 17V18C17 18.55 16.55 19 16 19C15.45 19 15 18.55 15 18V17H13C12.45 17 12 16.55 12 16C12 15.45 12.45 15 13 15H17C17.55 15 18 14.55 18 14C18 13.45 17.55 13 17 13H15C13.35 13 12 11.65 12 10C12 8.35 13.35 7 15 7V6C15 5.45 15.45 5 16 5C16.55 5 17 5.45 17 6V7H19C19.55 7 20 7.45 20 8C20 8.55 19.55 9 19 9H15C14.45 9 14 9.45 14 10C14 10.55 14.45 11 15 11Z" fill="black"/>
</svg>
