<svg width="40" height="40" viewBox="0 0 40 40" fill="none" xmlns="http://www.w3.org/2000/svg">
<rect width="40" height="40" rx="20" fill="#FAD76E"/>
<path d="M30.0447 25.52C29.3892 24.9702 25.5447 22.5357 24.9057 22.6475C24.6057 22.7007 24.3762 22.9565 23.762 23.6892C23.4779 24.0499 23.166 24.3877 22.829 24.6995C22.2116 24.5503 21.6139 24.3288 21.0485 24.0395C18.831 22.9598 17.0395 21.1678 15.9605 18.95C15.6712 18.3845 15.4496 17.7869 15.3005 17.1695C15.6123 16.8325 15.9501 16.5205 16.3107 16.2365C17.0427 15.6222 17.2992 15.3942 17.3525 15.0927C17.4642 14.4522 15.0275 10.6092 14.48 9.95373C14.2505 9.68223 14.042 9.49998 13.775 9.49998C13.001 9.49998 9.5 13.829 9.5 14.39C9.5 14.4357 9.575 18.9425 15.2667 24.7332C21.0575 30.425 25.5642 30.5 25.61 30.5C26.171 30.5 30.5 26.999 30.5 26.225C30.5 25.958 30.3177 25.7495 30.0447 25.52Z" fill="#12181B"/>
<path d="M25.2505 19.25H26.7505C26.7487 17.6592 26.116 16.1341 24.9912 15.0093C23.8663 13.8845 22.3412 13.2518 20.7505 13.25V14.75C21.9436 14.7512 23.0875 15.2256 23.9312 16.0693C24.7748 16.913 25.2493 18.0569 25.2505 19.25Z" fill="#12181B"/>
<path d="M29.0005 19.25H30.5005C30.4975 16.665 29.4693 14.1868 27.6415 12.359C25.8137 10.5311 23.3354 9.50295 20.7505 9.49998V11C22.9377 11.0026 25.0347 11.8726 26.5813 13.4192C28.1279 14.9658 28.9979 17.0627 29.0005 19.25Z" fill="#12181B"/>
</svg>
