<svg width="40" height="40" viewBox="0 0 40 40" fill="none" xmlns="http://www.w3.org/2000/svg">
<rect width="40" height="40" rx="20" fill="black"/>
<path d="M30.0447 25.52C29.3892 24.9702 25.5447 22.5357 24.9057 22.6475C24.6057 22.7007 24.3762 22.9565 23.762 23.6892C23.4779 24.0499 23.166 24.3877 22.829 24.6995C22.2116 24.5504 21.6139 24.3288 21.0485 24.0395C18.831 22.9599 17.0395 21.1679 15.9605 18.95C15.6712 18.3845 15.4496 17.7869 15.3005 17.1695C15.6123 16.8325 15.9501 16.5206 16.3107 16.2365C17.0427 15.6222 17.2992 15.3942 17.3525 15.0927C17.4642 14.4522 15.0275 10.6092 14.48 9.95375C14.2505 9.68225 14.042 9.5 13.775 9.5C13.001 9.5 9.5 13.829 9.5 14.39C9.5 14.4357 9.575 18.9425 15.2667 24.7332C21.0575 30.425 25.5642 30.5 25.61 30.5C26.171 30.5 30.5 26.999 30.5 26.225C30.5 25.958 30.3177 25.7495 30.0447 25.52Z" fill="white"/>
<path d="M25.2504 19.25H26.7504C26.7486 17.6592 26.1159 16.1342 24.991 15.0093C23.8662 13.8845 22.3411 13.2518 20.7504 13.25V14.75C21.9435 14.7512 23.0874 15.2257 23.931 16.0693C24.7747 16.913 25.2492 18.0569 25.2504 19.25Z" fill="white"/>
<path d="M29.0004 19.25H30.5004C30.4974 16.6651 29.4692 14.1868 27.6414 12.359C25.8135 10.5312 23.3353 9.50298 20.7504 9.5V11C22.9376 11.0026 25.0345 11.8726 26.5812 13.4192C28.1278 14.9658 28.9978 17.0628 29.0004 19.25Z" fill="white"/>
</svg>
