<svg width="70" height="70" viewBox="0 0 70 70" fill="none" xmlns="http://www.w3.org/2000/svg">
<rect width="70" height="70" rx="35" fill="white" fill-opacity="0.25"/>
<path d="M48.3584 49.2834L40.3251 41.2502C40.7772 39.566 40.3052 37.7924 39.0632 36.5554C37.8411 35.3382 36.1122 34.8563 34.433 35.2736C34.2591 35.3134 34.125 35.4475 34.0753 35.6214C34.0256 35.7953 34.0753 35.9791 34.1995 36.1033L36.609 38.5177L36.1768 40.5695L34.12 41.0067L31.7106 38.5972C31.5864 38.4681 31.4025 38.4184 31.2287 38.4681C31.0548 38.5128 30.9206 38.6519 30.8809 38.8258C30.4586 40.5049 30.9355 42.2388 32.1577 43.4609C33.3997 44.7029 35.1782 45.1749 36.8574 44.7228L42.1186 49.9839C42.213 50.0783 42.3372 50.128 42.4713 50.128H48.0057C48.2094 50.128 48.3882 50.0088 48.4677 49.825C48.5422 49.6362 48.5025 49.4176 48.3584 49.2834Z" fill="white"/>
<path d="M18.2574 21.0805C17.8717 21.0805 17.5561 21.3961 17.5561 21.7818L17.5 30.6878C17.5 31.0735 17.8156 31.3891 18.2013 31.3961L23.04 31.4242C23.033 31.3119 23.0049 31.2068 23.0119 31.0946L23.068 21.4382C23.068 21.326 23.0891 21.2208 23.1031 21.1086L18.2644 21.0805H18.2574Z" fill="#FAD76E"/>
<path d="M28.9937 33.3455C30.0877 33.3455 30.9923 32.5321 31.1676 31.4872L38.7623 31.5082C38.9096 32.5811 39.8212 33.4157 40.9362 33.4227L43.3065 33.4367H43.3205C44.5337 33.4367 45.5225 32.4549 45.5295 31.2347L45.5856 21.5783C45.5926 20.3581 44.6108 19.3624 43.3906 19.3553L41.0204 19.3413C40.4243 19.3343 39.8703 19.5657 39.4495 19.9795C39.1129 20.3161 38.9025 20.7368 38.8324 21.1997L31.2377 21.1716C31.0905 20.0987 30.1788 19.2712 29.0638 19.2642L26.6936 19.2502C26.0835 19.2431 25.5505 19.4746 25.1298 19.8883C24.709 20.302 24.4776 20.856 24.4706 21.4451L24.4145 31.1015C24.4075 32.3217 25.3892 33.3245 26.6094 33.3315L28.9797 33.3455H28.9937Z" fill="white"/>
<path d="M51.7987 21.2838L46.96 21.2557C46.967 21.3679 46.988 21.4731 46.988 21.5783L46.9319 31.2347C46.9319 31.3469 46.9039 31.4521 46.8969 31.5643L51.7426 31.5923C52.1283 31.5923 52.4438 31.2838 52.4438 30.8981L52.4999 21.992C52.4999 21.8027 52.4228 21.6274 52.2966 21.4941C52.1633 21.3609 51.988 21.2838 51.7987 21.2838Z" fill="#FAD76E"/>
<path d="M21.6094 38.5981H21.6234C22.2545 38.5981 22.8225 38.3456 23.2363 37.9319C23.65 37.5181 23.9095 36.9571 23.9095 36.326C23.9165 35.3162 22.6262 33.2755 22.2335 32.6724C22.1002 32.4761 21.8828 32.3568 21.6514 32.3568H21.6444C21.413 32.3568 21.1956 32.469 21.0624 32.6654C20.6626 33.2615 19.3443 35.2881 19.3443 36.2979C19.3373 37.5602 20.3541 38.5911 21.6094 38.5981Z" fill="#FAD76E"/>
</svg>
