<svg width="32" height="32" viewBox="0 0 32 32" fill="none" xmlns="http://www.w3.org/2000/svg">
<path d="M13.3547 3.24268C8.88004 3.24268 7.87204 5.90934 7.71204 9.04001C8.44804 8.80001 9.12004 8.49601 9.70137 8.11734C10.976 7.29601 12.7414 7.21068 14.096 7.90934C15.2 8.48001 16.9227 9.18934 19.0134 9.50934C18.9334 6.17601 18.0534 3.24268 13.3547 3.24268Z" fill="black"/>
<path d="M13.4346 8.82134C12.5226 8.35201 11.3386 8.41067 10.48 8.96534C9.6693 9.48267 8.73064 9.88801 7.6853 10.176C7.71197 14.3467 10.2986 17.8613 13.3546 17.8613C16.3093 17.8613 18.8213 14.576 19.008 10.5867C16.624 10.256 14.672 9.45601 13.4346 8.82134Z" fill="black"/>
<path d="M17.824 18.352L17.264 18.112C17.04 18.032 16.8373 17.92 16.64 17.792C15.664 18.512 14.544 18.928 13.3546 18.928C12.16 18.928 11.04 18.512 10.064 17.7867C9.85595 17.92 9.64262 18.0427 9.40262 18.1227L8.75195 18.4053C11.552 19.8453 15.0453 19.8293 17.824 18.352Z" fill="black"/>
<path d="M27.888 10.2187C27.7013 10.2453 27.5413 10.368 27.472 10.544L26.4693 13.0027L25.152 12.816L24.0853 12.0267L25.088 9.568C25.1573 9.392 25.1306 9.19466 25.0186 9.04533C24.9066 8.896 24.72 8.816 24.5333 8.83733C22.976 9.01866 21.6426 10.032 21.0506 11.4827C20.4533 12.9387 20.7093 14.6027 21.6906 15.8187L20.6346 18.4L22.1653 19.056C22.9813 19.3707 23.664 19.952 24.176 20.6827L25.5253 17.3867C27.072 17.2107 28.4213 16.1973 29.0186 14.7413C29.6106 13.296 29.3653 11.6373 28.384 10.416C28.2613 10.2667 28.0746 10.192 27.888 10.2187Z" fill="#FAD76E"/>
<path d="M6.70396 22.6933C6.57596 22.1493 6.32529 21.4987 5.82929 21.136C5.48263 20.8853 5.25329 20.5173 5.18396 20.096C5.17329 20.0427 5.17863 19.9947 5.17329 19.9413L4.98129 20.0213C3.59463 20.5707 2.66663 22.0373 2.66663 23.68V28.224C2.66663 28.5227 2.90129 28.7573 3.19996 28.7573H5.62129C5.56263 28.592 5.52529 28.416 5.52529 28.224V25.024C5.52529 24.0853 5.97329 23.232 6.70396 22.6933Z" fill="black"/>
<path d="M16.8534 22.1174C17.024 21.3227 17.3547 20.3893 17.9787 19.5627C16.496 20.2453 14.8694 20.592 13.2374 20.592C11.7334 20.592 10.2347 20.2987 8.84802 19.7227C9.39736 20.5067 9.69602 21.376 9.85602 22.1174H16.8534Z" fill="black"/>
<path d="M21.7387 20.0373L21.5307 19.9467C21.5253 19.9947 21.5307 20.048 21.52 20.096C21.4507 20.5173 21.2213 20.8853 20.8747 21.136C20.3787 21.4933 20.128 22.1493 20 22.6933C20.7307 23.232 21.1787 24.0853 21.1787 25.024V28.224C21.1787 28.4107 21.1413 28.5867 21.0827 28.7573H23.504C23.7973 28.7573 24.0373 28.5227 24.0373 28.224V23.68C24.0427 22.0373 23.1093 20.5707 21.7387 20.0373Z" fill="black"/>
<path d="M18.832 23.28C18.9013 22.544 19.1786 21.0507 20.256 20.272C20.4907 20.1013 20.5493 19.7707 20.3733 19.5307C20.2027 19.2907 19.872 19.2373 19.632 19.408C18.2027 20.4373 17.8507 22.272 17.7653 23.184H8.93865C8.85332 22.272 8.50665 20.4373 7.07732 19.408C6.83732 19.2373 6.50665 19.2907 6.33065 19.5307C6.15998 19.7707 6.21332 20.1013 6.45332 20.272C7.53065 21.0507 7.80798 22.544 7.87732 23.28C7.13065 23.5147 6.58665 24.208 6.58665 25.0293V28.224C6.58665 28.5227 6.82665 28.7573 7.11998 28.7573H19.584C19.8827 28.7573 20.1173 28.5227 20.1173 28.224V25.0293C20.1173 24.208 19.5733 23.5147 18.832 23.28Z" fill="#FAD76E"/>
</svg>
