<svg width="70" height="70" viewBox="0 0 70 70" fill="none" xmlns="http://www.w3.org/2000/svg">
<rect width="70" height="70" rx="35" fill="white" fill-opacity="0.25"/>
<g clip-path="url(#clip0_104_4092)">
<path d="M36.0254 42.1777C36.5922 42.1777 37.0508 41.7191 37.0508 41.1523V28.8477C37.0508 28.2809 36.5922 27.8223 36.0254 27.8223H33.9746C33.4078 27.8223 32.9492 28.2809 32.9492 28.8477V41.1523C32.9492 41.7191 33.4078 42.1777 33.9746 42.1777H36.0254Z" fill="#FAD76E"/>
<path d="M51.4746 48.3984H39.1016C38.5348 48.3984 38.0762 48.8571 38.0762 49.4238V51.4746C38.0762 52.0414 38.5348 52.5 39.1016 52.5H51.4746C52.0414 52.5 52.5 52.0414 52.5 51.4746V49.4238C52.5 48.8571 52.0414 48.3984 51.4746 48.3984Z" fill="#FAD76E"/>
<path d="M30.8984 17.5H18.5254C17.9586 17.5 17.5 17.9586 17.5 18.5254V20.5762C17.5 21.1429 17.9586 21.6016 18.5254 21.6016H30.8984C31.4652 21.6016 31.9238 21.1429 31.9238 20.5762V18.5254C31.9238 17.9586 31.4652 17.5 30.8984 17.5Z" fill="#FAD76E"/>
<path d="M19.5508 23.6523V28.8477C19.5508 35.0671 24.679 40.127 30.8984 40.127V29.073C30.2737 28.5095 29.873 27.7025 29.873 26.7969V23.6523H19.5508Z" fill="white"/>
<path d="M50.4492 46.3477V41.1523C50.4492 34.9329 45.321 29.873 39.1016 29.873V40.927C39.7263 41.4905 40.127 42.2975 40.127 43.2031V46.3477H50.4492Z" fill="white"/>
</g>
<defs>
<clipPath id="clip0_104_4092">
<rect width="35" height="35" fill="white" transform="translate(17.5 17.5)"/>
</clipPath>
</defs>
</svg>
