<svg width="32" height="32" viewBox="0 0 32 32" fill="none" xmlns="http://www.w3.org/2000/svg">
<g clip-path="url(#clip0_107_5628)">
<path d="M15.9997 9.90317C12.6377 9.90317 9.90259 12.6383 9.90259 16.0001C9.90259 19.3621 12.6377 22.0972 15.9997 22.0972C19.3615 22.0972 22.0966 19.3621 22.0966 16.0001C22.0966 12.6383 19.3615 9.90317 15.9997 9.90317ZM19.6196 14.8519L15.2517 19.2198C15.0683 19.4031 14.8279 19.4949 14.5876 19.4949C14.3474 19.4949 14.1072 19.4034 13.9238 19.2198L12.2546 17.5506C11.8879 17.1842 11.8879 16.5897 12.2546 16.223C12.6211 15.8563 13.2156 15.8563 13.5823 16.223L14.5876 17.2283L18.292 13.5243C18.6584 13.1576 19.2529 13.1576 19.6196 13.5243C19.9863 13.8907 19.9863 14.4852 19.6196 14.8519Z" fill="#FAD76E"/>
<path d="M29.5932 8.6822L29.5922 8.65729C29.5783 8.34992 29.569 8.02473 29.5634 7.66291C29.5373 5.89851 28.1347 4.43904 26.37 4.34041C22.6908 4.13509 19.8447 2.93539 17.4128 0.565031L17.392 0.545256C16.5988 -0.182037 15.4023 -0.182037 14.6088 0.545256L14.5881 0.565031C12.1562 2.93539 9.31003 4.13509 5.63084 4.34066C3.86644 4.43904 2.46361 5.89851 2.43749 7.66316C2.43212 8.02253 2.4226 8.34772 2.40868 8.65729L2.40722 8.71515C2.33568 12.4669 2.24682 17.136 3.80882 21.3741C4.66771 23.7046 5.96848 25.7305 7.67478 27.3958C9.61813 29.2922 12.1635 30.7979 15.2402 31.8706C15.3403 31.9055 15.4443 31.9338 15.5502 31.9551C15.6997 31.9849 15.85 31.9998 16.0004 31.9998C16.1508 31.9998 16.3015 31.9849 16.4506 31.9551C16.5566 31.9338 16.6613 31.9053 16.7619 31.8701C19.8349 30.7954 22.3776 29.2891 24.3193 27.3928C26.0248 25.7271 27.3256 23.7007 28.1852 21.3697C29.7531 17.1189 29.6645 12.441 29.5932 8.6822ZM16 23.9751C11.6025 23.9751 8.02512 20.3977 8.02512 16.0003C8.02512 11.6028 11.6025 8.02546 16 8.02546C20.3972 8.02546 23.9748 11.6028 23.9748 16.0003C23.9748 20.3977 20.3972 23.9751 16 23.9751Z" fill="black"/>
</g>
<defs>
<clipPath id="clip0_107_5628">
<rect width="32" height="32" fill="white"/>
</clipPath>
</defs>
</svg>
