<svg width="70" height="70" viewBox="0 0 70 70" fill="none" xmlns="http://www.w3.org/2000/svg">
<rect width="70" height="70" rx="35" fill="white" fill-opacity="0.25"/>
<g clip-path="url(#clip0_163_3513)">
<path d="M32.2656 28.678V33.5447C34.7758 34.6001 35.9297 38.1056 36.0773 44.9142L36.4279 44.9634C36.9688 45.0345 37.713 45.0783 38.5164 45.0783C39.3209 45.0783 40.0641 45.0345 40.6109 44.958L42.624 44.6681C42.257 34.7319 38.7734 29.3671 32.2656 28.678ZM49.1148 45.5294C47.8297 45.3523 45.6121 45.3517 44.3193 45.53L40.7619 46.0446C40.1674 46.1261 39.3695 46.1715 38.5159 46.1715C37.6622 46.1715 36.8638 46.1261 36.2731 46.0451L32.7075 45.5294C31.424 45.3523 29.2042 45.3517 27.9136 45.53L24.3545 46.0446C23.7612 46.1261 22.9633 46.1715 22.1091 46.1715C21.2543 46.1715 20.457 46.1261 19.8674 46.0451L18.0469 45.7799V51.573L19.7143 51.8152C20.3558 51.9038 21.2067 51.953 22.1096 51.953C23.012 51.953 23.8629 51.9038 24.5082 51.8147L28.0673 51.3001C28.6606 51.2186 29.4585 51.1737 30.3127 51.1737C31.167 51.1737 31.9648 51.2186 32.5549 51.2995L36.1205 51.8152C36.7626 51.9038 37.613 51.953 38.5159 51.953C39.4188 51.953 40.2691 51.9038 40.9155 51.8147L44.473 51.3001C45.0674 51.2186 45.8653 51.1737 46.719 51.1737C47.5727 51.1737 48.3711 51.2186 48.9623 51.3001L51.9531 51.731V45.9385L49.1148 45.5294Z" fill="white"/>
<path d="M17.5 33.25H24.5V19.25H17.5V33.25Z" fill="white"/>
<path d="M22.0333 43.9086C22.2465 43.6953 22.5965 43.6953 22.8098 43.9086L23.8981 44.9969C23.477 45.0406 22.9684 45.068 22.4215 45.0734L22.0333 44.6852C21.82 44.4719 21.82 44.1219 22.0333 43.9086Z" fill="#FAD76E"/>
<path d="M46.6426 43.3617C46.8559 43.1484 47.2059 43.1484 47.4192 43.3617C47.6325 43.575 47.6325 43.925 47.4192 44.1383L47.2497 44.3078C47.0741 44.3023 46.8991 44.3023 46.7186 44.3023C46.3577 44.3023 46.0083 44.3078 45.6801 44.3242L46.6426 43.3617Z" fill="#FAD76E"/>
<path d="M30.0778 43.2031C30.0778 42.3008 30.8161 41.5625 31.7184 41.5625C32.6208 41.5625 33.359 42.3008 33.359 43.2031V44.5156L32.8559 44.4445C32.1887 44.3516 31.2864 44.3023 30.3129 44.3023C30.2364 44.3023 30.1543 44.3023 30.0778 44.3078V43.2031Z" fill="#FAD76E"/>
<path d="M26.7969 35H30.625C30.9269 35 31.1719 34.7555 31.1719 34.4531V18.0469C31.1719 17.7445 30.9269 17.5 30.625 17.5H26.7969C26.495 17.5 26.25 17.7445 26.25 18.0469V34.4531C26.25 34.7555 26.495 35 26.7969 35Z" fill="#FAD76E"/>
</g>
<defs>
<clipPath id="clip0_163_3513">
<rect width="35" height="35" fill="white" transform="translate(17.5 17.5)"/>
</clipPath>
</defs>
</svg>
